<svg width="133" height="49" viewBox="0 0 133 49" fill="none" xmlns="http://www.w3.org/2000/svg">
<path d="M66.0566 17.1488H54.3564V20.7469H58.2293V31.6238H62.1837V20.7469H66.0566V17.1488Z" fill="#393939"/>
<path d="M74.9475 20.4574L74.5602 21.3259C73.6633 20.5607 72.5015 20.1265 71.1969 20.1265C67.8336 20.1265 65.4284 22.5872 65.4284 26.0406C65.4284 29.5145 67.8336 31.996 71.1969 31.996C72.4811 31.996 73.6226 31.5824 74.5194 30.838L74.8456 31.6238H77.7808V20.4574H74.9475ZM71.7065 28.6047C70.2797 28.6047 69.2401 27.5087 69.2401 26.0406C69.2401 24.5931 70.2797 23.5178 71.7065 23.5178C73.1334 23.5178 74.1729 24.5931 74.1729 26.0406C74.1729 27.5087 73.1334 28.6047 71.7065 28.6047Z" fill="#393939"/>
<path d="M80.1939 19.0719H83.9444V15.8047H80.1939V19.0719ZM80.1735 31.6238H83.9648V20.4574H80.1735V31.6238Z" fill="#393939"/>
<path d="M90.8694 28.2118L95.0277 21.0984V20.4574H85.9366V23.8693H89.7891L85.5697 31.0654V31.6238H95.0684V28.2118H90.8694Z" fill="#393939"/>
<path d="M102.219 31.996C105.807 31.996 108.395 29.4939 108.395 26.0406C108.395 22.5872 105.807 20.1058 102.219 20.1058C98.6317 20.1058 96.0634 22.5872 96.0634 26.0406C96.0634 29.4939 98.6317 31.996 102.219 31.996ZM102.219 28.5427C100.854 28.5427 99.8548 27.5294 99.8548 26.0612C99.8548 24.5724 100.854 23.5591 102.219 23.5591C103.605 23.5591 104.604 24.5931 104.604 26.0612C104.604 27.5294 103.605 28.5427 102.219 28.5427Z" fill="#393939"/>
<path d="M110.009 31.6238H113.698V28.0671H110.009V31.6238Z" fill="#393939"/>
<path d="M115.965 19.0719H119.715V15.8047H115.965V19.0719ZM115.944 31.6238H119.736V20.4574H115.944V31.6238Z" fill="#393939"/>
<path d="M128.76 20.1472C127.333 20.1472 126.11 20.6848 125.295 21.6154L124.785 20.4574H122.115V31.6238H125.906V25.6683C125.906 24.2415 126.579 23.4144 127.761 23.4144C128.719 23.4144 129.208 24.0554 129.208 25.3582V31.6238H133V24.8205C133 21.9876 131.308 20.1472 128.76 20.1472Z" fill="#393939"/>
<path fill-rule="evenodd" clip-rule="evenodd" d="M0 10C0 4.47717 4.47715 0 10 0H38.1869C43.7097 0 48.1869 4.47715 48.1869 10V38.1873C48.1869 43.7101 43.7097 48.1873 38.1869 48.1873H10C4.47715 48.1873 0 43.7102 0 38.1873V10Z" fill="#169C50"/>
<path fill-rule="evenodd" clip-rule="evenodd" d="M37.5184 28.2116V19.6044C38.8316 19.3242 39.8343 18.2609 40.0374 16.9337C40.2405 15.6064 39.6013 14.292 38.432 13.6321C37.2626 12.9721 35.807 13.1043 34.7757 13.9641L27.279 9.63545C27.2902 9.52193 27.297 9.40885 27.297 9.29277C27.297 7.50848 25.8505 6.06201 24.0662 6.06201C22.282 6.06201 20.8354 7.50847 20.8354 9.29277C20.8359 9.42962 20.8458 9.56633 20.8647 9.70185L13.4382 13.99C12.417 13.1169 10.9622 12.9671 9.78468 13.6137C8.60719 14.2604 7.95295 15.5686 8.14179 16.8987C8.33085 18.2287 9.32343 19.3029 10.6344 19.5961V28.2199C9.32596 28.5118 8.3336 29.5819 8.141 30.9087C7.94857 32.2355 8.5955 33.5435 9.76719 34.1954C10.9386 34.8473 12.3912 34.7078 13.4172 33.8447L21.018 38.2339L21.0731 38.1371C21.4021 39.6107 22.0549 40.7842 22.8714 41.3733V41.9606H23.5269V41.7022C23.7014 41.7569 23.8833 41.7851 24.0662 41.7857C24.3309 41.784 24.5921 41.727 24.8335 41.6187V41.9615H25.4903V41.1887C26.2968 40.3704 26.8392 39.3286 27.047 38.1985L34.6973 33.7813C35.7091 34.683 37.1765 34.8568 38.3712 34.2165C39.5658 33.5763 40.2335 32.2582 40.0431 30.9163C39.8526 29.5744 38.8444 28.4942 37.5189 28.2116L37.5184 28.2116ZM36.8264 14.5692C37.8836 14.5687 38.7409 15.4254 38.7413 16.4825C38.7417 17.5397 37.8849 18.397 36.8277 18.3973C35.7706 18.3976 34.9134 17.5408 34.9133 16.4836C34.9133 15.4268 35.7696 14.5699 36.8264 14.5692H36.8264ZM26.8249 10.9702L33.9251 15.0688C33.5645 15.8279 33.5168 16.6982 33.7923 17.4921L28.9885 20.3084C28.0322 18.8493 26.4774 17.8901 24.7442 17.69V12.4509C25.6108 12.2634 26.3625 11.7282 26.8231 10.9706L26.8249 10.9702ZM24.0499 7.41476C25.1071 7.41428 25.9645 8.27088 25.9649 9.32811C25.9652 10.3852 25.1084 11.2425 24.0512 11.2428C22.9942 11.2431 22.137 10.3864 22.1368 9.32918C22.1368 8.27361 22.9918 7.41698 24.0479 7.41516L24.0499 7.41476ZM21.3423 11.0231C21.8002 11.7445 22.5256 12.2549 23.3594 12.4425V17.6957C21.6192 17.9062 20.0636 18.882 19.1167 20.357L14.3639 17.5809C14.6715 16.7771 14.6406 15.8828 14.2783 15.1021L21.3423 11.0231ZM9.41124 16.4821C9.4104 15.4247 10.2672 14.5669 11.3247 14.5665C12.3822 14.5659 13.2399 15.423 13.24 16.4805C13.24 17.5384 12.3827 18.3956 11.3251 18.3954C10.2681 18.3961 9.41068 17.54 9.40938 16.4829L9.41124 16.4821ZM11.329 33.3224C10.2714 33.323 9.41386 32.466 9.41375 31.4084C9.41375 30.3507 10.2713 29.4936 11.3289 29.4942C12.3863 29.4948 13.2429 30.3528 13.2417 31.4104C13.241 32.4671 12.3841 33.3232 11.3273 33.3232L11.329 33.3224ZM12.0189 28.2105V19.6041C12.6217 19.4758 13.1751 19.1769 13.6127 18.7429L18.5125 21.6034C17.973 23.1319 18.0951 24.8161 18.8494 26.2509L13.7617 29.2328C13.3043 28.7145 12.6927 28.3565 12.0169 28.2113L12.0189 28.2105ZM27.2821 36.4656C27.2906 36.2987 27.2959 36.1317 27.2959 35.961C27.2959 33.1823 26.2163 30.8613 24.7727 30.2806V25.3638C25.6617 25.0454 26.1927 24.1339 26.0313 23.2037C25.8697 22.2734 25.0623 21.5942 24.1182 21.5942C23.1741 21.5942 22.3668 22.2734 22.2052 23.2037C22.0436 24.1339 22.5748 25.0454 23.4636 25.3638V30.2409C21.9692 30.7511 20.8382 33.1164 20.8382 35.9601C20.8382 36.1564 20.8453 36.3501 20.8549 36.5409L14.2674 32.7361C14.469 32.3089 14.5739 31.8426 14.5743 31.3702C14.5739 31.0541 14.5272 30.7397 14.4361 30.4371L19.6284 27.3943C20.5091 28.4072 21.7095 29.0886 23.0307 29.3255V27.9532C20.7999 27.4308 19.3077 25.3283 19.5508 23.05C19.7938 20.7717 21.6962 19.0314 23.987 18.9914C26.2778 18.9514 28.2397 20.6243 28.5622 22.8927C28.8847 25.1612 27.4666 27.3145 25.2553 27.9144V29.3038C26.5064 29.0448 27.6391 28.3854 28.4819 27.4252L33.7382 30.4944C33.5343 31.2099 33.5851 31.974 33.8817 32.6564L27.2821 36.4656ZM34.3909 29.2736L29.2705 26.2833C30.048 24.8238 30.1694 23.1028 29.6045 21.5485L34.5107 18.6731C34.9503 19.1349 35.5169 19.4559 36.1389 19.5952V28.2191C35.4564 28.3712 34.8421 28.7416 34.3889 29.274L34.3909 29.2736ZM36.8287 33.3224C35.7712 33.323 34.9137 32.4663 34.9133 31.409C34.9129 30.3517 35.7699 29.4943 36.8272 29.4942C37.8847 29.4942 38.7417 30.3515 38.7414 31.4088C38.7405 32.4649 37.8843 33.3208 36.8281 33.3215L36.8287 33.3224Z" fill="white"/>
</svg>
