<svg width="16" height="16" viewBox="0 0 16 16" fill="none" xmlns="http://www.w3.org/2000/svg">
<path fill-rule="evenodd" clip-rule="evenodd" d="M8.52304 0.299988C9.21577 0.299988 9.81097 0.776973 9.9413 1.43663L9.99924 1.72997C10.227 2.88295 11.4571 3.57148 12.6009 3.18627L12.892 3.08822C13.5464 2.86783 14.2701 3.12905 14.6164 3.7107L15.1396 4.58924C15.486 5.17091 15.3575 5.90911 14.8334 6.34835L14.6004 6.5437C13.6843 7.31147 13.6843 8.68853 14.6004 9.45627L14.8334 9.6516C15.3575 10.0909 15.486 10.8291 15.1396 11.4107L14.6165 12.2893C14.2701 12.8709 13.5464 13.1321 12.892 12.9117L12.601 12.8137C11.4571 12.4284 10.227 13.1169 9.99924 14.27L9.9413 14.5633C9.81097 15.223 9.21577 15.7 8.52304 15.7H7.47664C6.7839 15.7 6.18871 15.223 6.05838 14.5634L6.00038 14.2699C5.77256 13.1169 4.54247 12.4284 3.39865 12.8137L3.1077 12.9117C2.45328 13.1321 1.7296 12.8709 1.3832 12.2892L0.860037 11.4107C0.51365 10.8291 0.642134 10.0909 1.16621 9.6516L1.39932 9.45627C2.31533 8.68847 2.31533 7.31147 1.39932 6.54373L1.16621 6.34836C0.642134 5.90911 0.51365 5.17092 0.860037 4.58927L1.38322 3.71072C1.72961 3.12906 2.45326 2.86784 3.10768 3.08824L3.39871 3.18626C4.54251 3.57148 5.77256 2.88299 6.00038 1.73004L6.05837 1.43658C6.18871 0.776947 6.78384 0.299988 7.47664 0.299988H8.52304ZM7.99984 10.2C9.21484 10.2 10.1998 9.215 10.1998 8C10.1998 6.78493 9.21484 5.79999 7.99984 5.79999C6.78477 5.79999 5.79982 6.78493 5.79982 8C5.79982 9.215 6.78477 10.2 7.99984 10.2Z" fill="#169C50"/>
</svg>
