<svg width="67" height="68" viewBox="0 0 67 68" fill="none" xmlns="http://www.w3.org/2000/svg">
<g clip-path="url(#clip0_5_110)">
<path d="M33.5 38.1875C39.2817 38.1875 43.9688 33.5005 43.9688 27.7188C43.9688 21.937 39.2817 17.25 33.5 17.25C27.7183 17.25 23.0312 21.937 23.0312 27.7188C23.0312 33.5005 27.7183 38.1875 33.5 38.1875Z" stroke="#393939" stroke-width="5" stroke-linecap="round" stroke-linejoin="round"/>
<path d="M48.1562 59.125C48.1562 55.2379 46.6121 51.51 43.8635 48.7615C41.115 46.0129 37.3871 44.4688 33.5 44.4688C29.6129 44.4688 25.885 46.0129 23.1365 48.7615C20.3879 51.51 18.8438 55.2379 18.8438 59.125H48.1562Z" stroke="#393939" stroke-width="5" stroke-linecap="round" stroke-linejoin="round"/>
<path d="M50.25 29.8125C52.0345 29.8125 53.7893 29.3564 55.3479 28.4874C56.9065 27.6184 58.2171 26.3655 59.1553 24.8475C60.0934 23.3295 60.628 21.597 60.7082 19.8143C60.7884 18.0316 60.4116 16.2581 59.6135 14.662C58.8155 13.0659 57.6227 11.7003 56.1485 10.6949C54.6742 9.68945 52.9674 9.07756 51.1902 8.9173C49.4129 8.75705 47.6242 9.05375 45.9938 9.77924C44.3635 10.5047 42.9457 11.6349 41.875 13.0625" stroke="#393939" stroke-width="5" stroke-linecap="round" stroke-linejoin="round"/>
<path d="M52.3438 50.75H64.9062C64.9062 46.8629 63.3621 43.135 60.6135 40.3865C57.865 37.6379 54.1371 36.0938 50.25 36.0938" stroke="#393939" stroke-width="5" stroke-linecap="round" stroke-linejoin="round"/>
<path d="M25.125 13.0625C24.0543 11.6349 22.6365 10.5047 21.0062 9.77924C19.3758 9.05375 17.5871 8.75705 15.8098 8.9173C14.0326 9.07756 12.3258 9.68945 10.8515 10.6949C9.37728 11.7003 8.1845 13.0659 7.38647 14.662C6.58843 16.2581 6.21162 18.0316 6.29183 19.8143C6.37204 21.597 6.9066 23.3295 7.84475 24.8475C8.7829 26.3655 10.0935 27.6184 11.6521 28.4874C13.2107 29.3564 14.9655 29.8125 16.75 29.8125" stroke="#393939" stroke-width="5" stroke-linecap="round" stroke-linejoin="round"/>
<path d="M16.75 36.0938C12.8629 36.0938 9.13505 37.6379 6.38647 40.3865C3.63789 43.135 2.09375 46.8629 2.09375 50.75H14.6562" stroke="#393939" stroke-width="5" stroke-linecap="round" stroke-linejoin="round"/>
</g>
<defs>
<clipPath id="clip0_5_110">
<rect width="67" height="67" fill="white" transform="translate(0 0.5)"/>
</clipPath>
</defs>
</svg>
