<svg width="56" height="56" viewBox="0 0 56 56" fill="none" xmlns="http://www.w3.org/2000/svg">
<path d="M38 0.5V14.1719L30.5 18.625V11.0469L26.75 13.3906L18 18.625V11.0469L14.25 13.3906L1.75 20.8906L0.5 21.5938V55.5H55.5V0.5H38ZM43 5.5H50.5V50.5H5.5V24.3281L13 19.875V27.4531L16.75 25.1094L25.5 19.875V27.4531L29.25 25.1094L41.75 17.6094L43 16.9062V5.5ZM10.5 30.5V35.5H15.5V30.5H10.5ZM20.5 30.5V35.5H25.5V30.5H20.5ZM30.5 30.5V35.5H35.5V30.5H30.5ZM40.5 30.5V35.5H45.5V30.5H40.5ZM10.5 40.5V45.5H15.5V40.5H10.5ZM20.5 40.5V45.5H25.5V40.5H20.5ZM30.5 40.5V45.5H35.5V40.5H30.5ZM40.5 40.5V45.5H45.5V40.5H40.5Z" fill="#393939"/>
</svg>
